<svg width="54" height="54" viewBox="0 0 54 54" fill="none" xmlns="http://www.w3.org/2000/svg">
<path d="M35.3144 45.119C34.5487 44.8209 34.0584 44.2464 33.608 43.6146C33.4363 43.3737 33.19 43.1793 32.9697 42.972C32.4427 42.4762 31.9135 41.9838 31.3789 41.4956C30.9944 41.2386 30.679 40.8962 30.3291 40.5992C29.868 40.2514 29.3874 39.9296 28.9165 39.5948C28.2177 39.1066 27.4909 38.7481 27.5859 37.7631C27.6248 36.9672 27.9585 36.2554 28.3246 35.5653C28.4748 35.2824 28.6702 35.0437 28.7167 34.6992C28.7383 34.5372 29.0115 34.3633 29.2081 34.2726C30.571 33.576 31.4156 34.0317 32.7559 34.4464C33.163 34.5447 33.5346 34.7683 33.8564 35.0253C33.9957 35.1452 33.9169 35.2899 33.7765 35.4044C33.2559 35.8299 32.7051 35.7921 32.1144 35.561C31.6424 35.3752 31.1553 35.223 30.6693 35.075C30.3572 34.981 29.9241 35.2208 29.8453 35.5502C29.7373 36.007 29.6347 36.4704 29.6034 36.9369C29.5612 37.5709 29.6034 37.545 30.2168 37.7923C30.6607 37.9716 31.0668 38.2372 31.488 38.4684C32.6608 39.0883 33.5648 40.0981 34.6016 40.9102C35.458 41.5701 36.3188 42.216 37.0392 43.0292C37.4452 43.3932 37.874 43.7377 37.9345 44.3079C38.0446 45.0553 37.6386 45.7562 37.3977 46.4431C37.2476 46.9269 37.024 47.3773 36.7918 47.8255C36.6212 48.156 36.5424 48.561 36.3274 48.8612C36.0931 49.0524 36.0726 49.3353 35.957 49.5794C35.6341 50.0989 35.3133 50.6508 34.945 51.1368C34.8489 51.6789 34.3888 51.8798 33.9612 52.071C33.1263 52.436 32.2278 52.8086 31.3054 52.5472C31.002 52.4684 30.7514 52.1476 30.4825 51.9781C29.8788 51.734 29.4889 51.2502 29.0655 50.803C28.3225 50.019 27.8721 49.0588 27.371 48.129C26.9746 47.3946 26.575 46.6612 26.197 45.9171C26.0502 45.5575 25.7661 44.9062 26.3072 44.7496C26.6398 44.6438 26.9768 44.5401 27.3192 44.4775C27.5978 44.4267 27.8257 44.5509 28.0028 44.7777C28.3063 45.1654 28.6508 45.5262 28.9338 45.9268C30.004 47.3276 30.706 49.0729 32.285 50.006C32.4664 50.087 32.69 50.5568 32.8574 50.2166C33.0378 49.8418 33.2073 49.4541 33.5767 49.2036C33.6134 49.1787 33.6469 49.1204 33.6469 49.0772C33.6501 48.7705 33.8542 48.5739 34.0152 48.3374C34.2171 48.0393 34.3154 47.6764 34.4601 47.3416C34.7755 46.6083 35.1232 45.902 35.3101 45.1201L35.3144 45.119Z" fill="white"/>
<path d="M13.8776 15.4844C13.8862 15.0394 13.9176 14.5286 13.694 14.1333C13.3516 13.6063 13.005 13.0706 12.5827 12.6073C11.7651 11.7422 10.6106 11.3016 9.56515 10.7724C8.48839 10.2518 7.35547 9.81331 6.48499 8.96443C6.14155 8.61343 5.71927 8.18467 5.73115 7.65763C5.75923 7.08847 5.78515 6.51715 6.04867 5.98363C6.28627 5.50411 6.45475 4.99003 6.69235 4.50943C6.91915 4.05259 7.22155 3.67243 7.75723 3.50287C8.18707 3.36571 8.59423 3.15187 9.05647 3.26743C10.4 3.65839 11.7781 4.05907 12.8635 4.99111C13.3387 5.40151 13.8301 5.79571 14.2956 6.21691C14.6023 6.49447 14.8647 6.81955 15.2481 7.00963C15.4134 7.09171 15.3702 7.22995 15.2578 7.33795C14.8842 7.70083 14.0763 7.77643 13.667 7.47295C13.3333 7.22563 13.0071 6.96751 12.6972 6.69211C11.7738 5.95447 10.5793 5.76331 9.48847 5.39071C9.16771 5.29027 9.10291 5.32159 8.96143 5.61967C8.70115 6.16939 8.60179 6.75259 8.57587 7.35631C8.57047 8.00215 9.49927 8.40715 9.90859 8.81323C10.7143 9.53359 11.6755 9.97747 12.6475 10.4095C12.8894 10.5164 13.1 10.6935 13.3246 10.8393C14.814 11.6342 16.1931 12.8384 16.7191 14.4919C17.1381 15.6507 16.434 16.3246 15.8864 17.261C15.6294 17.7092 15.4015 18.1736 15.1466 18.624C14.5753 19.3616 14.0061 20.1608 13.1108 20.5442C12.7296 20.7202 12.3462 21.0475 11.9088 20.7937C11.7597 20.7138 11.5783 20.6673 11.4076 20.6587C10.9843 20.6382 10.6441 20.474 10.3017 20.2213C9.72283 19.7936 9.23791 19.2763 8.75515 18.7536C8.22271 18.1768 7.67191 17.612 7.19239 16.9932C6.46015 16.0093 5.83807 14.9379 5.17387 13.9044C4.64683 13.1138 5.44927 13.1278 5.99899 12.9021C6.68371 12.6688 6.85327 13.6916 7.20967 14.0707C7.66435 14.6658 7.93975 15.3991 8.59207 15.8462C8.76271 15.9628 8.86207 16.1799 9.01111 16.3354C9.87403 17.1994 10.6203 18.2028 11.7133 18.7935C11.8418 18.8767 11.9682 18.8691 12.0675 18.7406C12.2652 18.4868 12.4585 18.2298 12.654 17.9749C13.0935 17.4014 13.4704 16.7707 13.8355 16.1486C13.9327 15.9726 13.8711 15.708 13.883 15.4833C13.8808 15.4833 13.8765 15.4822 13.8722 15.4822L13.8776 15.4844Z" fill="white"/>
<path d="M43.0689 30.77C43.4826 30.3045 43.8152 29.8887 44.2353 29.4869C44.8995 28.4091 45.6609 27.3993 46.4029 26.3722C46.8651 25.7231 47.3176 25.0676 47.6632 24.3472C48.0952 23.75 48.5359 23.1538 48.9474 22.5393C48.9323 22.5101 48.9182 22.4799 48.9031 22.4507C47.1913 22.4961 45.5789 23.1733 43.9265 23.5664C43.5182 23.6722 43.3983 23.7835 43.3746 24.1939C43.3411 24.7598 43.056 25.1367 42.5397 25.2998C42.2719 25.384 41.9328 25.276 41.9058 25.0168C41.8593 24.5719 41.8237 24.0913 41.9522 23.6744C42.0635 23.3137 42.5127 23.1668 42.8799 23.0188C43.8012 22.6473 44.7699 22.4475 45.7419 22.252C46.3327 22.1332 46.9008 21.9226 47.5153 21.8924C47.8771 21.8751 48.2324 21.7498 48.5953 21.7239C49.1223 21.6861 49.6526 21.6991 50.1818 21.6818C50.5112 21.6094 50.886 21.5878 51.2024 21.6969C51.4357 21.7887 51.4011 22.0403 51.3309 22.2239C50.7726 23.8105 49.9334 25.2728 49.0532 26.7005C48.7433 27.1941 48.362 27.652 48.1039 28.1693C47.8523 28.6726 47.4094 29.0485 47.1719 29.5215C46.783 30.2959 46.1016 30.8035 45.5702 31.4407C45.3175 31.7452 44.892 31.9504 44.5042 32.1049C43.8519 32.3651 43.1715 32.5639 42.4944 32.7604C41.9263 32.9246 41.4025 32.7896 40.9295 32.4494C40.1616 31.8986 39.7879 31.0853 39.4045 30.2818C39.1366 29.7202 38.8839 29.1489 38.6701 28.5668C38.2748 27.4101 38.3277 26.1573 38.2446 24.952C38.1906 23.9735 38.3169 23.0113 38.6172 22.0771C38.8148 21.2498 38.9736 20.4117 39.3429 19.6373C39.6756 18.9181 40.5536 18.89 41.2102 18.6427C42.3637 18.2463 43.4502 18.9224 44.5367 19.2377C44.7937 19.3349 45.0313 19.4829 45.284 19.5941C45.5108 19.7194 45.9137 19.7086 45.9774 20.0099C45.9817 20.0661 45.8964 20.1525 45.8305 20.186C45.3564 20.4257 44.8704 20.4301 44.3768 20.2335C44.2591 20.1871 44.1316 20.132 44.0085 20.1298C43.3108 20.1201 42.7233 19.7356 42.0624 19.6049C41.6865 19.5812 41.0947 19.1935 40.8538 19.6244C40.5288 20.3091 40.4121 21.0737 40.2177 21.8017C40.0017 22.9076 40.0363 24.0297 40.235 25.1345C40.3581 26.1001 40.5061 27.0613 40.9856 27.9263C41.1271 28.2125 41.3452 28.4642 41.5353 28.7266C42.0537 29.4167 42.5127 30.109 43.0711 30.7721L43.0689 30.77Z" fill="white"/>
<path d="M22.0994 23.442C22.202 23.389 22.2711 23.362 22.3305 23.321C23.1761 22.7248 24.1676 22.4127 25.1191 22.0315C25.6115 21.7788 26.1537 21.7518 26.6872 21.7021C27.0771 21.6654 27.3223 21.8457 27.5091 22.2885C28.1053 23.537 28.0264 24.9486 28.2133 26.291C28.5275 28.3581 28.5005 30.4501 28.5437 32.5356C28.547 33.041 28.5157 33.5475 28.4681 34.0519C28.4563 34.1793 28.3493 34.3543 28.237 34.4072C27.6668 34.6275 26.3114 35.4894 26.2477 34.3597C26.2304 33.4633 26.2822 32.5658 26.2585 31.6694C26.2563 30.7428 26.2822 29.815 26.2444 28.8895C26.0749 27.2166 25.8815 25.5361 25.6591 23.8675C25.5835 23.6083 25.5273 23.1093 25.1407 23.2141C24.5218 23.3761 23.9084 23.5402 23.3684 23.8999C23.1448 24.0489 22.8921 24.1612 22.6437 24.2714C22.3057 24.4226 22.2549 24.4647 22.3057 24.8168C22.5973 26.5124 22.8867 28.2102 23.012 29.9263C23.0433 30.1596 22.9645 30.3021 22.7722 30.395C22.4525 30.5613 21.217 30.9318 21.1187 30.4166C20.3757 27.3656 19.7785 24.2844 19.3735 21.1696C19.084 19.5378 18.8842 17.8897 18.773 16.2373C18.7568 15.8787 18.8 15.5148 18.8551 15.1584C18.8702 15.0644 19.0117 14.9607 19.1197 14.911C19.5063 14.7328 19.8983 14.5654 20.2969 14.4142C20.6986 14.262 20.9578 14.5762 21.0356 14.9542C21.1414 15.464 21.2203 15.9792 21.3045 16.4932C21.4179 17.4382 21.5939 18.3768 21.703 19.3207C21.8035 20.7128 21.9017 22.0369 22.0994 23.4398V23.442Z" fill="white"/>
<path d="M29.9652 12.6367C29.9102 13.9165 29.8464 15.0689 29.7957 16.3282C29.7708 17.001 29.7417 17.6738 29.7514 18.3456C29.7568 18.7106 29.6088 18.9364 29.2989 19.0789C28.9857 19.2236 28.6757 19.3846 28.3496 19.4926C27.7048 19.7042 27.5104 19.5768 27.424 18.9029C27.397 15.5074 27.5482 12.0881 27.2847 8.69472C27.2674 7.15032 27.2307 5.59944 27.2285 4.05612C27.2404 3.9276 27.3365 3.75156 27.4445 3.69432C27.842 3.48804 28.2524 3.29688 28.6779 3.15648C28.8939 3.08736 29.2028 3.3012 29.4371 3.25692C30.7601 2.67696 32.1382 2.25684 33.5379 1.92528C33.9893 1.81836 34.4894 1.87992 34.9635 1.91448C35.267 1.93716 35.4668 2.1834 35.4938 2.49228C35.5337 2.9556 35.6752 3.42432 35.4884 3.8844C35.2659 4.43304 35.1816 5.01732 34.8738 5.553C34.3317 6.49692 33.6534 7.32852 32.9979 8.18388C32.3175 9.08136 31.6835 10.0156 30.9718 10.8904C30.8357 11.061 30.8595 11.1798 31.0366 11.3051C32.486 12.371 34.0174 13.3236 35.4095 14.463C35.7454 14.7276 36.0845 14.99 36.4204 15.2557C36.7476 15.5149 36.9312 16.015 36.3513 16.2461C36.1461 16.3282 35.9398 16.4102 35.7389 16.502C35.3922 16.6597 35.1136 16.5398 34.8328 16.326C34.4861 16.0776 34.0055 16.0085 33.6556 15.772C33.0292 15.2762 32.4482 14.719 31.8293 14.2114C31.1932 13.6854 30.6338 13.1281 29.9642 12.6356L29.9652 12.6367ZM29.9652 9.81684C30.5636 9.07812 31.0668 8.33724 31.6068 7.56396C32.5076 6.25932 33.729 4.86288 33.567 3.1608C33.5584 2.9826 33.4472 2.96424 33.3078 2.9988C32.5292 3.2202 31.7213 3.33252 30.948 3.56364C30.4977 3.70404 30.07 3.9276 29.6412 4.1328C29.5678 4.16844 29.489 4.29696 29.4954 4.3758C29.5473 5.41368 29.7449 6.44076 29.8367 7.47216C29.8724 8.08776 29.8389 8.7066 29.8486 9.32544C29.8518 9.46476 29.9134 9.60408 29.9652 9.81576V9.81684Z" fill="white"/>
<path d="M19.2118 22.9969C19.1815 23.5348 19.161 24.0747 19.1167 24.6115C19.0908 24.9269 18.8759 25.2206 18.9925 25.5554C18.554 26.3568 18.7063 27.4584 17.6522 27.7802C16.569 28.1572 15.5279 28.7252 14.3464 28.6464C14.1412 28.6539 14.0893 28.7166 14.1185 28.9229C14.2297 29.7285 14.3096 30.5375 14.4166 31.3431C14.7352 33.2083 15.0116 35.0821 15.1153 36.9732C15.1466 37.2788 15.0991 37.5683 14.9501 37.8404C14.9263 37.8836 14.8982 37.9344 14.9036 37.9798C14.9458 38.3491 14.7103 38.5327 14.409 38.6526C13.8431 38.8643 12.7372 39.4399 12.7048 38.4161C12.5298 36.7475 12.438 35.0767 12.4488 33.3995C12.2717 30.5332 12.0038 27.6712 11.9617 24.7973C11.9498 24.3437 11.9531 23.8879 11.9779 23.4343C11.9995 23.2334 12.1032 23.0153 12.2166 22.8457C12.3548 22.2668 12.8506 22.0573 13.3366 21.8856C13.667 21.7689 13.9036 21.567 14.1487 21.3521C14.8702 20.7203 15.5646 20.0518 16.3357 19.4837C16.7213 19.1996 17.2408 19.056 17.7224 18.934C19.0465 18.7158 19.2161 22.0865 19.2161 22.9969H19.2118ZM13.9252 26.6009H13.9802C13.9802 26.7758 13.9846 26.9508 13.9792 27.1257C13.9738 27.3018 14.0396 27.3526 14.2276 27.331C14.7546 27.2716 15.2827 27.2305 15.8119 27.1916C16.2634 27.1592 16.636 26.7499 16.6046 26.3103C16.555 25.6775 16.5139 25.0424 16.5409 24.4106C16.5031 23.9084 16.4545 23.4062 16.3962 22.9062C16.3562 22.5692 16.2947 22.2344 16.2374 21.8996C16.1975 21.6264 15.9037 21.8122 15.7741 21.9115C15.3302 22.2863 14.8918 22.6675 14.45 23.0444C14.233 23.2529 13.883 23.3522 13.9219 23.7119C13.9295 24.6741 13.9262 25.6375 13.9262 26.5998L13.9252 26.6009Z" fill="white"/>
<path d="M31.8048 26.2979C31.5391 27.0312 31.4409 27.8196 31.2357 28.5734C31.0985 29.135 30.8739 29.3251 30.3803 29.3402C30.1881 29.3456 30.0682 29.296 30.066 29.08C30.0498 28.2959 30.0001 27.5075 30.0531 26.7234C30.2021 25.1509 30.4624 23.5676 30.9937 22.0762C31.4128 21.1981 31.7875 20.292 32.401 19.5263C32.8168 19.1245 33.4324 18.9798 34.0037 18.9766C34.3061 18.9841 34.4098 19.117 34.4778 19.3967C34.7683 20.6754 35.1841 21.9185 35.6161 23.1551C36.0967 24.5364 36.4661 25.9436 36.7501 27.3757C37.3528 29.7128 37.693 32.105 38.0515 34.4897C38.2189 35.3861 38.4209 36.2771 38.5775 37.1767C38.5991 37.2912 38.6023 37.4165 38.6542 37.5169C38.7924 37.7848 38.6909 37.9986 38.4609 38.1088C37.9738 38.3442 37.4781 38.5807 36.9586 38.7308C36.4931 38.8658 36.195 38.5948 36.0935 38.0224C35.6939 35.5675 35.2921 33.1138 34.9617 30.6481C34.7921 29.5595 34.6193 28.4719 34.4335 27.3865C34.4206 27.3163 34.3579 27.2245 34.2931 27.1975C33.4626 26.8498 32.6872 26.6068 31.8059 26.2968L31.8048 26.2979ZM33.1008 22.0556C33.0533 22.0556 33.0058 22.0556 32.9583 22.0567C32.6537 22.8872 32.4096 23.7394 32.1223 24.5764C32.0781 24.7243 32.1331 24.8021 32.3092 24.8226C32.8945 24.9014 33.3276 24.9997 33.9529 25.0526C33.6592 24.0191 33.3795 23.0374 33.0997 22.0567L33.1008 22.0556Z" fill="white"/>
<path d="M21.7952 35.1182C21.4388 35.2835 21.1397 35.4379 20.7865 35.5913C20.7347 35.614 20.6213 35.6032 20.6029 35.5718C20.5716 35.5178 20.563 35.4109 20.5986 35.3677C20.8038 35.1172 20.9723 34.8396 21.3049 34.7003C21.8849 34.4584 22.4584 34.1992 23.0167 33.913C23.5211 33.6818 23.9326 33.2552 24.4758 33.1138C24.9758 32.8999 24.9359 33.3492 24.6724 33.6289C24.4736 33.8168 24.1842 33.9043 23.9693 34.0879C24.3797 34.4519 24.4682 34.9541 24.5989 35.4271C24.9197 36.6086 25.1519 37.8139 25.4294 39.0062C25.7232 40.3087 26.2373 42.3186 25.6217 43.552C25.3722 43.9775 25.1432 44.4235 24.6929 44.7464C23.8375 45.3674 22.0814 46.1278 21.0241 46.0165C20.4895 45.9269 20.1569 45.5716 19.8145 45.2249C19.2626 44.6752 18.7637 44.065 18.3868 43.3835C17.7258 42.2192 17.1048 41.015 16.8737 39.6856C16.4676 37.9586 16.5983 36.1961 16.6696 34.4411C16.6814 34.0188 16.757 33.9529 16.3045 33.8914C16.2635 33.886 16.2181 33.8698 16.1857 33.846C16.0961 33.779 15.946 33.7088 15.9416 33.6332C15.9362 33.535 16.0226 33.3892 16.1144 33.3362C16.6307 33.0349 17.1793 32.8124 17.7949 33.0112C18.322 33.1807 18.8425 33.3686 19.3555 33.5728C19.4549 33.6127 19.5521 33.7628 19.565 33.8708C19.5748 33.9529 19.4678 34.1041 19.3804 34.1322C18.9797 34.265 18.5725 34.3849 18.1578 34.4681C17.9612 34.508 17.8943 34.534 17.9072 34.7554C17.9494 35.4347 17.9159 36.1172 17.9753 36.7944C18.0282 37.4046 18.1567 38.0105 18.268 38.6153C18.5995 40.5236 19.6342 42.2074 20.8805 43.66C20.9626 43.7593 21.131 43.8371 21.2639 43.8436C21.6138 43.8608 21.9659 43.8479 22.3158 43.8187C22.4281 43.809 22.5793 43.7431 22.6344 43.6546C23.1085 42.8921 23.4293 42.1026 23.1539 41.1792C22.7791 39.1369 22.2532 37.1454 21.792 35.1172L21.7952 35.1182Z" fill="white"/>
<path d="M22.9506 17.8775C22.8534 16.8742 22.7443 15.872 22.6633 14.8676C22.632 13.4841 22.5196 12.106 22.3576 10.7301C22.3252 10.4201 22.2756 10.1102 22.2259 9.80128C22.2162 9.74296 22.1794 9.67168 22.1319 9.6382C21.5908 9.25804 21.0044 8.95996 20.3899 8.71912C20.1523 8.62516 19.9104 8.54416 19.676 8.4448C19.5162 8.37784 19.4902 8.44156 19.4535 8.58844C19.3185 9.13816 19.1522 9.67924 19.015 10.2279C18.8325 10.8748 18.9567 11.9127 18.0376 11.944C17.8616 11.9613 17.7849 11.8781 17.7914 11.7172C17.8087 11.3295 17.8162 10.9396 17.8616 10.5551C17.9664 9.65224 18.0722 8.74828 18.2126 7.85188C18.4059 6.8572 18.6511 5.8636 18.8941 4.87972C19.0345 4.39696 19.2213 3.92824 19.3768 3.4498C19.6134 2.74996 19.7656 2.01448 20.0346 1.32868C20.3132 0.74656 21.7636 0.43876 21.8997 1.29844C21.9516 1.5166 22.1233 1.72288 22.2842 1.8946C22.768 2.41408 23.065 3.0232 23.2551 3.69928C24.239 6.52348 24.5252 9.51292 24.7596 12.4775C24.9086 13.9409 25.0933 15.3989 25.0792 16.872C25.0738 17.3105 25.2466 17.8322 24.765 18.0795C24.5716 18.2015 24.4194 18.3959 24.2174 18.4942C23.902 18.6476 23.5683 18.7772 23.2281 18.856C22.889 18.9305 22.9549 18.0935 22.9171 17.8797C22.929 17.8786 22.9408 17.8775 22.9527 17.8764L22.9506 17.8775ZM21.2625 3.03724C21.2355 3.03508 21.2096 3.03292 21.1826 3.03076C20.8327 3.88504 20.4741 4.73068 20.2851 5.63788C20.1512 6.112 20.0076 6.58504 19.8661 7.057C19.8186 7.21576 19.8607 7.28812 20.0378 7.28596C20.6502 7.28056 21.2517 7.35616 21.8392 7.53976C22.0056 7.59268 22.0941 7.54516 22.0671 7.34752C21.9418 5.88628 21.5617 4.46824 21.2625 3.03724Z" fill="white"/>
<path d="M44.1068 7.4452C43.7331 7.40848 43.4275 7.37284 43.1294 7.2022C42.84 7.03696 42.4944 6.9754 42.1866 6.83932C41.5785 6.58876 40.9186 6.68056 40.3138 6.39112C39.992 6.28204 39.952 6.30148 39.8462 6.62008C39.6475 7.21732 39.6842 7.83292 39.6885 8.44636C39.6972 9.47344 39.7112 10.5005 39.7166 11.5287C39.7209 12.2728 39.938 12.9694 40.1875 13.6584C40.356 14.1077 40.5169 14.9998 41.1714 14.6542C41.909 14.2794 42.652 13.9112 43.3616 13.4878C43.7418 13.261 44.0496 12.9165 44.4027 12.6422C44.8196 12.3182 45.2862 12.0579 45.6674 11.6864C46.0184 11.3364 46.4482 11.061 46.8198 10.7273C47.1556 10.4422 47.5045 10.1657 47.7972 9.83956C48.1212 9.47884 48.497 9.22828 48.9463 9.07492C49.3437 8.98312 50.2034 8.50468 50.4777 8.92696C50.8136 9.38704 50.3319 9.8158 49.9766 10.0912C49.6083 10.3979 49.2022 10.6679 48.8718 11.0103C48.4138 11.4844 47.876 11.843 47.3522 12.2285C46.8057 12.6314 46.2776 13.058 45.729 13.4576C44.9514 13.9943 44.1457 14.4933 43.3702 15.0344C43.1629 15.1769 42.9534 15.3195 42.7611 15.4815C42.354 15.8249 41.8755 16.0269 41.3863 16.2094C40.9888 16.3574 40.5925 16.5312 40.1799 16.6166C39.4423 16.7688 39.0556 16.5561 38.7284 15.9988C38.0566 14.8184 37.8568 13.45 37.5901 12.1389C37.3611 10.8364 37.4821 9.51232 37.5307 8.20012C37.5674 7.10176 37.5793 5.5822 38.7943 5.1286C39.546 4.74088 40.3074 4.73872 41.1228 4.88236C41.7384 4.96228 42.3086 5.18692 42.8389 5.50876C42.8832 5.53576 42.9436 5.58112 42.948 5.62216C42.9782 5.9386 43.2504 5.94076 43.4566 6.03472C43.839 6.20968 44.218 6.38896 44.5928 6.57796C44.6652 6.6136 44.7202 6.69676 44.7667 6.76912C45.1209 7.26052 44.4265 7.37284 44.1057 7.44628L44.1068 7.4452Z" fill="white"/>
<path d="M10.4896 24.7518C10.4042 25.5413 10.3146 26.2476 10.2563 26.9561C10.1688 27.9799 9.38904 28.7035 8.6784 29.358C7.11348 30.5633 4.26336 30.7879 3.19092 28.8374C2.55264 27.6883 2.52348 26.3999 2.73516 25.1395C2.76756 24.3284 2.94144 23.5368 3.36912 22.8402C3.76116 22.1663 4.3206 21.6641 5.0604 21.325C6.29052 20.8087 7.46664 21.5064 8.66328 21.7224C10.1137 21.9967 10.198 23.6416 10.4885 24.754L10.4896 24.7518ZM8.82096 26.3297C8.7972 26.3254 8.77452 26.3221 8.75076 26.3178C8.81556 25.416 8.58012 23.1718 7.58976 22.838C6.9882 22.6868 6.44496 22.2678 5.80236 22.4287C5.595 22.4741 5.38116 22.5043 5.19108 22.3434C5.16084 22.3175 4.99776 22.3672 4.974 22.4168C4.28172 23.607 4.21908 24.7302 4.21908 26.0672C4.245 27.3524 4.74936 29.2014 6.33372 29.2208C6.40824 29.2241 6.47952 29.2792 6.55296 29.2792C6.8208 29.2792 7.14156 29.358 7.34568 29.2435C8.43432 28.6517 8.6568 27.4475 8.81988 26.3297H8.82096Z" fill="white"/>
<path d="M6.24215 27.1425C6.04127 27.1814 5.83067 27.0453 5.71295 26.8185C5.33171 26.2029 5.42891 25.1024 6.08987 24.8594C6.12443 24.8454 6.17195 24.813 6.19355 24.8303C6.39335 24.9771 6.56939 24.8151 6.75083 24.7665C7.11479 24.6683 7.50791 25.0819 7.47551 25.5495C7.45607 25.8282 7.42475 26.1079 7.37723 26.3811C7.30703 26.8509 6.62555 27.1685 6.24215 27.1415V27.1425Z" fill="white"/>
</svg>
